<svg width="73" height="73" viewBox="0 0 73 73" fill="none" xmlns="http://www.w3.org/2000/svg">
<path d="M11.0214 0C4.93294 0 0 4.93294 0 11.0214V61.9692C0 68.0577 4.93294 72.9969 11.0214 72.9969H61.9723C68.0608 72.9969 73 68.0577 73 61.9692V11.0214C73 4.93294 68.0608 0 61.9723 0H11.0214ZM16.6751 12.3634C20.4276 12.3634 22.7387 14.8268 22.8102 18.0667C22.8102 21.2352 20.4276 23.77 16.6036 23.77H16.5322C12.848 23.77 10.4685 21.2352 10.4685 18.0667C10.4685 14.8268 12.9194 12.3634 16.6751 12.3634ZM49.0187 27.5008C56.2255 27.5008 61.6617 32.2101 61.6617 42.3369V61.2858H50.6962V43.6105C50.6962 39.1684 49.0808 36.1552 45.1357 36.1552C42.0915 36.1552 40.2898 38.1743 39.4821 40.1624C39.2025 40.8769 39.1404 41.8399 39.1404 42.8339V61.2858H28.1749C28.1749 61.2858 28.2991 31.3714 28.1749 28.265H39.1404V32.9245C40.6004 30.688 43.2098 27.5008 49.0187 27.5008ZM11.1177 28.265H22.0864V61.2858H11.1177V28.265Z" fill="#E9E9E9" fill-opacity="0.35"/>
</svg>
