<svg width="72" height="82" viewBox="0 0 72 82" fill="none" xmlns="http://www.w3.org/2000/svg">
<path d="M53.596 61.5C54.7806 61.5 55.9166 60.9601 56.7542 59.9989C57.5918 59.0378 58.0624 57.7342 58.0624 56.375V43.8598C58.0624 42.5005 57.5918 41.197 56.7542 40.2358C55.9166 39.2747 54.7806 38.7348 53.596 38.7348H47.3968C47.3968 36.9359 47.4905 35.1319 47.6737 33.333C47.9506 31.4265 48.4151 29.7301 49.0582 28.249C49.7058 26.7627 50.5366 25.5994 51.5549 24.7486C52.5688 23.7954 53.8595 23.3187 55.4317 23.3187V15.375C52.8457 15.375 50.5857 16.0105 48.6429 17.2815C46.7169 18.5396 45.061 20.2768 43.7969 22.3655C42.5281 24.6682 41.5929 27.1917 41.0278 29.8377C40.4582 32.7578 40.1795 35.7426 40.197 38.7348V56.375C40.197 57.7342 40.6676 59.0378 41.5052 59.9989C42.3428 60.9601 43.4788 61.5 44.6634 61.5H53.596ZM26.798 61.5C27.9826 61.5 29.1186 60.9601 29.9562 59.9989C30.7938 59.0378 31.2643 57.7342 31.2643 56.375V43.8598C31.2643 42.5005 30.7938 41.197 29.9562 40.2358C29.1186 39.2747 27.9826 38.7348 26.798 38.7348H20.5987C20.5987 36.9359 20.6925 35.1319 20.8757 33.333C21.1526 31.4265 21.6171 29.7301 22.2602 28.249C22.9078 26.7627 23.7386 25.5994 24.7569 24.7486C25.7708 23.7954 27.0615 23.3187 28.6337 23.3187V15.375C26.0477 15.375 23.7877 16.0105 21.8448 17.2815C19.9189 18.5396 18.263 20.2768 16.9989 22.3655C15.7301 24.6682 14.7949 27.1917 14.2297 29.8377C13.6602 32.7578 13.3815 35.7426 13.399 38.7348V56.375C13.399 57.7342 13.8696 59.0378 14.7072 59.9989C15.5448 60.9601 16.6808 61.5 17.8653 61.5H26.798Z" fill="white"/>
</svg>
