<svg width="40" height="27" viewBox="0 0 40 27" fill="none" xmlns="http://www.w3.org/2000/svg">
<path d="M0 24.6086V2.39143C0 2.36572 0.0385714 2.12143 0.115714 1.65857L13.1914 12.8443L0.154286 25.38C0.0514286 25.02 0 24.7629 0 24.6086ZM1.73571 0.115714C1.91571 0.0385714 2.13429 0 2.39143 0H37.6072C37.8386 0 38.07 0.0385714 38.3014 0.115714L25.1872 11.34L23.4514 12.7286L20.0186 15.5443L16.5857 12.7286L14.85 11.34L1.73571 0.115714ZM1.77429 26.8843L14.9271 14.2714L20.0186 18.3986L25.11 14.2714L38.2629 26.8843C38.0572 26.9614 37.8386 27 37.6072 27H2.39143C2.18572 27 1.98 26.9614 1.77429 26.8843ZM26.8457 12.8443L39.8829 1.65857C39.96 1.89 39.9986 2.13429 39.9986 2.39143V24.6086C39.9986 24.84 39.96 25.0972 39.8829 25.38L26.8457 12.8443Z" fill="white"/>
</svg>
