<svg width="75" height="75" viewBox="0 0 75 75" fill="none" xmlns="http://www.w3.org/2000/svg">
<path fill-rule="evenodd" clip-rule="evenodd" d="M37.4998 0C16.7913 0 0 17.214 0 38.4494C0 55.4367 10.7454 69.8491 25.644 74.9331C27.5189 75.2896 28.2074 74.0992 28.2074 73.0841C28.2074 72.1672 28.1726 69.138 28.1557 65.925C17.7233 68.2512 15.5225 61.3891 15.5225 61.3891C13.8161 56.9454 11.3585 55.7632 11.3585 55.7632C7.9555 53.3768 11.6148 53.4252 11.6148 53.4252C15.3804 53.6972 17.3626 57.388 17.3626 57.388C20.708 63.2661 26.1358 61.5669 28.276 60.5843C28.6128 58.0996 29.584 56.4024 30.6566 55.4428C22.3275 54.4719 13.5721 51.1743 13.5721 36.4414C13.5721 32.2443 15.0367 28.8137 17.4351 26.1217C17.0462 25.1529 15.7625 21.242 17.7993 15.9462C17.7993 15.9462 20.9479 14.9121 28.1125 19.8871C31.1047 19.0355 34.3124 18.6086 37.4993 18.5933C40.6861 18.6086 43.8968 19.0355 46.8934 19.8871C54.0511 14.9127 57.1958 15.9456 57.1958 15.9456C59.2366 21.241 57.9534 25.1519 57.5634 26.1202C59.9678 28.8127 61.4224 32.2428 61.4224 36.4399C61.4224 51.2089 52.6502 54.4597 44.3002 55.4117C45.645 56.6057 46.8438 58.9452 46.8438 62.5326C46.8438 67.6772 46.801 71.8183 46.801 73.0841C46.801 74.1079 47.4752 75.3059 49.3759 74.929C64.2695 69.8394 75 55.4321 75 38.4499C75 17.214 58.2082 0 37.4998 0Z" fill="#E9E9E9" fill-opacity="0.35"/>
</svg>
