<svg width="33" height="33" viewBox="0 0 33 33" fill="none" xmlns="http://www.w3.org/2000/svg">
<path d="M31.1666 22.9167C28.9584 22.9166 26.7634 22.5767 24.6586 21.9087C24.0168 21.7252 23.2836 21.8165 22.8254 22.367L18.7916 26.3999C13.5664 23.742 9.35017 19.5249 6.69144 14.2997L10.7253 10.2669C11.1835 9.80856 11.3665 9.07543 11.1835 8.43356C10.4498 6.32543 10.0833 4.125 10.0833 1.8333C10.0833 0.825343 9.25839 0 8.25 0H1.8333C0.824914 0 0 0.825343 0 1.8333C0 19.0664 13.9336 33 31.1666 33C32.1747 33 33 32.1746 33 31.1667V24.75C33 23.742 32.1747 22.9167 31.1666 22.9167Z" fill="white"/>
</svg>
